<svg width="26" height="24" viewBox="0 0 26 24" fill="none" xmlns="http://www.w3.org/2000/svg">
<path d="M20.1837 24H6.39356C6.10982 23.9976 5.83863 23.8828 5.63951 23.6806C5.4404 23.4785 5.32964 23.2056 5.33156 22.9218V20.2983C5.32653 19.5159 5.62629 18.7623 6.16732 18.1972C6.70836 17.632 7.44816 17.2997 8.23001 17.2706C8.31356 14.2589 8.92586 12.2594 10.0524 11.3204C10.4523 10.9922 10.8463 10.6304 11.1685 10.3082C10.8418 10.2388 10.5214 10.1428 10.2105 10.0211C10.0948 9.97846 9.96881 9.93316 9.87356 9.90376C9.81941 9.94771 9.75206 10.0088 9.69776 10.0577C9.39925 10.3686 9.04171 10.6168 8.64606 10.7879C8.25041 10.9589 7.82461 11.0493 7.39361 11.0537C5.52296 11.0537 4.78181 9.15826 4.75361 7.96366C4.73456 7.21651 5.51096 6.52816 7.16336 5.24341C7.53386 4.95346 7.86941 4.69561 8.06711 4.50961C8.23826 4.32952 8.37307 4.11811 8.46416 3.88696C8.57285 3.55223 8.77626 3.25619 9.04976 3.03469C9.32325 2.81319 9.6551 2.67573 10.0051 2.63896C10.1084 2.63469 10.2104 2.61481 10.3077 2.58001H10.3062C10.2754 2.58001 10.3062 2.34571 10.1026 1.55911C10.0202 1.33837 10.0051 1.09813 10.0594 0.868829C10.1136 0.639526 10.2347 0.431483 10.4073 0.271062C11.095 -0.317838 12.1987 0.152412 13.7266 0.798312C14.2627 1.02541 14.815 1.26121 15.31 1.42231C17.623 2.18266 20.2 5.65726 20.2 9.42916C20.1651 11.0284 19.8293 12.6067 19.21 14.0816C18.7918 15.1029 18.511 16.1753 18.3751 17.2706C19.152 17.3071 19.8846 17.6426 20.4197 18.2069C20.9549 18.7712 21.251 19.5206 21.2463 20.2983V22.9218C21.2482 23.2057 21.1373 23.4786 20.9381 23.6808C20.7388 23.883 20.4675 23.9978 20.1837 24ZM6.83156 22.5H19.7457V20.2983C19.7514 19.8991 19.5985 19.5139 19.3206 19.2272C19.0427 18.9405 18.6624 18.7757 18.2632 18.7691H16.8408V18.0191C16.8804 16.4895 17.2053 14.9807 17.7988 13.5704C18.3568 12.2589 18.6625 10.8539 18.7 9.42916C18.709 8.08651 18.3554 6.76633 17.6765 5.60794C16.9976 4.44954 16.0186 3.49589 14.8428 2.84761C14.3125 2.67481 13.7178 2.42431 13.1421 2.17966C12.6921 1.98931 12.0859 1.73296 11.6538 1.59466C11.7601 1.90145 11.8015 2.22701 11.7753 2.55064C11.749 2.87428 11.6558 3.18893 11.5015 3.47461C11.3386 3.6764 11.1333 3.8399 10.9001 3.95356C10.667 4.06723 10.4117 4.12826 10.1524 4.13236C10.0132 4.14556 10.0015 4.14736 9.81986 4.52926C9.65061 4.9319 9.40371 5.29725 9.09326 5.60446C8.87066 5.81251 8.50001 6.10261 8.08541 6.42631C7.42762 6.89818 6.8169 7.4324 6.26171 8.02156C6.29831 8.37016 6.48881 9.55366 7.39406 9.55366C7.64109 9.54803 7.88424 9.49094 8.10796 9.38603C8.33168 9.28111 8.53106 9.13069 8.69336 8.94436C8.84404 8.76456 9.0333 8.62102 9.24707 8.52439C9.46084 8.42776 9.69363 8.38054 9.92816 8.38621C10.202 8.4306 10.4699 8.50609 10.7266 8.61121C11.1589 8.82764 11.6477 8.90443 12.1255 8.83096C12.3343 8.74305 12.568 8.73459 12.7825 8.80719C12.9971 8.87979 13.1776 9.02841 13.2901 9.22501C13.4409 9.51361 13.794 10.1918 11.0094 12.4755C10.2066 13.145 9.73781 15.1005 9.72026 17.8529L9.72461 18.0179V18.7679H8.31551C7.91605 18.7742 7.53543 18.9388 7.25721 19.2255C6.97899 19.5122 6.8259 19.8976 6.83156 20.2971V22.5Z" fill="#9CA3AF"/>
</svg>
