<svg width="26" height="24" viewBox="0 0 26 24" fill="none" xmlns="http://www.w3.org/2000/svg">
<g clip-path="url(#clip0_1_1146)">
<path d="M16.1485 5.6499L17.2735 3.3984C17.3175 3.3103 17.3438 3.21439 17.3508 3.11614C17.3578 3.01789 17.3453 2.91922 17.3142 2.82578C17.283 2.73234 17.2338 2.64595 17.1692 2.57154C17.1047 2.49714 17.0261 2.43617 16.938 2.39213C16.8499 2.34808 16.754 2.32182 16.6558 2.31484C16.5575 2.30786 16.4588 2.3203 16.3654 2.35146C16.272 2.38261 16.1856 2.43186 16.1112 2.4964C16.0368 2.56094 15.9758 2.6395 15.9317 2.7276L14.6999 5.19285H11.3L9.4543 1.5H15.1636C15.3625 1.5 15.5533 1.42098 15.6939 1.28033C15.8346 1.13968 15.9136 0.948912 15.9136 0.75C15.9136 0.551088 15.8346 0.360322 15.6939 0.21967C15.5533 0.0790176 15.3625 0 15.1636 0L8.24065 0C8.11282 2.99082e-05 7.98712 0.0327302 7.87549 0.0949964C7.76385 0.157263 7.66998 0.247028 7.60279 0.355771C7.5356 0.464515 7.49732 0.588626 7.49158 0.716324C7.48584 0.844022 7.51283 0.971067 7.57 1.0854L9.8515 5.65005C8.01718 6.86396 6.49487 8.4932 5.40809 10.4056C4.3213 12.318 3.70065 14.4596 3.5965 16.6567C3.5965 19.6084 6.1 24 13 24C19.9 24 22.4035 19.6084 22.4035 16.6567C22.2993 14.4596 21.6787 12.3179 20.5919 10.4055C19.5051 8.49312 17.9828 6.86385 16.1485 5.6499ZM13 22.5C7.20145 22.5 5.0965 19.005 5.0965 16.6567C5.0965 11.1694 10.0594 6.69285 11.2693 6.69285H14.7307C15.9406 6.69285 20.9035 11.1694 20.9035 16.6567C20.9035 19.005 18.7985 22.5 13 22.5Z" fill="#9CA3AF"/>
<path d="M13.75 14.087V11.8753C13.9895 11.9474 14.2134 12.0637 14.41 12.2183C14.4866 12.2803 14.5746 12.3267 14.6691 12.3547C14.7635 12.3827 14.8626 12.3919 14.9606 12.3816C15.0586 12.3714 15.1537 12.3419 15.2403 12.2949C15.3269 12.2479 15.4034 12.1843 15.4655 12.1078C15.5275 12.0312 15.5739 11.9432 15.6019 11.8487C15.63 11.7542 15.6391 11.6552 15.6288 11.5572C15.6186 11.4591 15.5891 11.3641 15.5421 11.2775C15.4951 11.1909 15.4316 11.1143 15.355 11.0523C14.8871 10.6774 14.3319 10.4271 13.7412 10.3248C13.7303 10.1317 13.6447 9.95049 13.5025 9.81942C13.3603 9.68834 13.1727 9.61773 12.9794 9.62253C12.7861 9.62732 12.6023 9.70715 12.4668 9.84511C12.3313 9.98307 12.2548 10.1683 12.2535 10.3617C11.6334 10.4338 11.0576 10.7187 10.6243 11.1679C10.1909 11.6171 9.92679 12.2028 9.877 12.825C9.877 14.2635 10.9983 14.6634 12.0831 15.0516C12.1353 15.07 12.1959 15.0936 12.25 15.1131V17.6082C11.7623 17.5715 11.2922 17.4099 10.885 17.139C10.8061 17.0799 10.7164 17.0369 10.6209 17.0125C10.5254 16.9881 10.4261 16.9827 10.3285 16.9967C10.231 17.0107 10.1371 17.0438 10.0523 17.094C9.96755 17.1443 9.8935 17.2107 9.8344 17.2896C9.77531 17.3685 9.73233 17.4582 9.70791 17.5537C9.6835 17.6492 9.67813 17.7485 9.69212 17.8461C9.7061 17.9436 9.73917 18.0375 9.78942 18.1223C9.83967 18.2071 9.90613 18.2811 9.985 18.3402C10.6595 18.8017 11.4487 19.0671 12.265 19.1071C12.2821 19.294 12.3696 19.4673 12.5098 19.5921C12.6499 19.7168 12.8322 19.7837 13.0198 19.779C13.2073 19.7744 13.3861 19.6987 13.5199 19.5672C13.6538 19.4357 13.7326 19.2583 13.7406 19.0708C15.9502 18.7708 16.3134 17.5049 16.3134 16.7112C16.315 15.3408 15.085 14.648 13.75 14.087ZM11.377 12.825C11.377 12.4511 11.7453 12.1219 12.25 11.9328V13.515C11.418 13.2015 11.377 13.1001 11.377 12.825ZM13.75 17.5443V15.7368C14.6545 16.1849 14.815 16.4718 14.815 16.7109C14.815 17.1414 14.4435 17.415 13.75 17.5443Z" fill="#9CA3AF"/>
</g>
<defs>
<clipPath id="clip0_1_1146">
<rect width="24" height="24" fill="white" transform="translate(1)"/>
</clipPath>
</defs>
</svg>
