<svg width="26" height="24" viewBox="0 0 26 24" fill="none" xmlns="http://www.w3.org/2000/svg">
<g clip-path="url(#clip0_1_1134)">
<path d="M17.5835 13.166H12.584C12.3851 13.166 12.1944 13.0869 12.0537 12.9463C11.9131 12.8056 11.834 12.6149 11.834 12.416V3.2505C11.834 3.05159 11.9131 2.86083 12.0537 2.72017C12.1944 2.57952 12.3851 2.5005 12.584 2.5005C12.783 2.5005 12.9737 2.57952 13.1144 2.72017C13.255 2.86083 13.334 3.05159 13.334 3.2505V11.6655H17.5835C17.7825 11.6655 17.9732 11.7445 18.1139 11.8852C18.2545 12.0258 18.3335 12.2166 18.3335 12.4155C18.3335 12.6144 18.2545 12.8052 18.1139 12.9458C17.9732 13.0865 17.7825 13.1655 17.5835 13.1655V13.166Z" fill="#9CA3AF"/>
<path d="M13 24C10.3307 24.0058 7.73533 23.1235 5.62272 21.4919C3.5101 19.8604 2.00032 17.5723 1.33121 14.9883C0.662101 12.4042 0.871692 9.67096 1.92697 7.21912C2.98224 4.76729 4.82322 2.7362 7.15989 1.44582C9.49657 0.155443 12.1961 -0.320884 14.8333 0.0918751C17.4705 0.504634 19.8954 1.78302 21.7261 3.72565C23.5567 5.66828 24.6891 8.16474 24.9448 10.8218C25.2004 13.4788 24.5649 16.1453 23.1382 18.4014C23.0855 18.4847 23.0169 18.5568 22.9363 18.6136C22.8557 18.6703 22.7648 18.7107 22.6686 18.7323C22.5724 18.754 22.4729 18.7564 22.3758 18.7396C22.2787 18.7228 22.1858 18.687 22.1025 18.6343C22.0192 18.5816 21.9471 18.513 21.8903 18.4324C21.8336 18.3518 21.7932 18.2608 21.7716 18.1647C21.75 18.0685 21.7475 17.969 21.7643 17.8719C21.7811 17.7747 21.8169 17.6819 21.8696 17.5986C23.2547 15.4086 23.7836 12.7848 23.3552 10.2292C22.9268 7.67358 21.5711 5.36569 19.5476 3.7471C17.524 2.12851 14.9747 1.31287 12.3874 1.45627C9.80015 1.59966 7.35658 2.69201 5.52429 4.5243C3.692 6.35659 2.59966 8.80015 2.45626 11.3874C2.31287 13.9747 3.1285 16.524 4.74709 18.5476C6.36568 20.5711 8.67357 21.9268 11.2292 22.3552C13.7847 22.7836 16.4086 22.2547 18.5986 20.8696C18.6819 20.8169 18.7747 20.7811 18.8719 20.7643C18.969 20.7475 19.0685 20.75 19.1647 20.7716C19.2608 20.7932 19.3518 20.8336 19.4324 20.8903C19.513 20.9471 19.5816 21.0192 19.6343 21.1025C19.687 21.1858 19.7228 21.2787 19.7396 21.3758C19.7564 21.4729 19.7539 21.5724 19.7323 21.6686C19.7107 21.7648 19.6703 21.8557 19.6136 21.9363C19.5568 22.0169 19.4847 22.0855 19.4014 22.1382C17.4871 23.3528 15.2671 23.9985 13 24Z" fill="#9CA3AF"/>
</g>
<defs>
<clipPath id="clip0_1_1134">
<rect width="24" height="24" fill="white" transform="translate(1)"/>
</clipPath>
</defs>
</svg>
